<?xml version="1.0" encoding="UTF-8"?>
<svg xmlns="http://www.w3.org/2000/svg" xmlns:xlink="http://www.w3.org/1999/xlink" width="468pt" height="327pt" viewBox="0 0 468 327" version="1.1">
<defs>
<clipPath id="clip1">
  <path d="M 9.363281 13.601563 L 458.636719 13.601563 L 458.636719 313.402344 L 9.363281 313.402344 Z M 9.363281 13.601563 "/>
</clipPath>
<clipPath id="clip2">
  <path d="M 9.363281 13.601563 L 458.636719 13.601563 L 458.636719 313.402344 L 9.363281 313.402344 Z M 9.363281 13.601563 "/>
</clipPath>
</defs>
<g id="surface4">
<g clip-path="url(#clip1)" clip-rule="nonzero">
<path style=" stroke:none;fill-rule:nonzero;fill:rgb(100%,100%,100%);fill-opacity:1;" d="M 9.363281 313.398438 L 458.636719 313.398438 L 458.636719 13.597656 L 9.363281 13.597656 Z M 9.363281 313.398438 "/>
</g>
<path style="fill:none;stroke-width:0.75;stroke-linecap:round;stroke-linejoin:round;stroke:rgb(100%,0%,0%);stroke-opacity:1;stroke-miterlimit:10;" d="M 296 37.226563 L 295.996094 38.585938 L 295.902344 39.515625 L 295.609375 41.078125 L 295.605469 41.601563 L 295.777344 42.183594 L 295.859375 42.734375 L 295.828125 43.605469 L 295.625 44.152344 L 295.046875 44.527344 L 292.359375 46.167969 L 290.507813 47.609375 L 288.683594 49.632813 L 287.8125 50.816406 L 286.65625 51.710938 L 285.445313 52.230469 L 283.773438 52.539063 L 282.445313 52.621094 L 280.371094 52.726563 L 279.101563 52.722656 L 278.296875 52.457031 L 277.519531 52.078125 L 276.773438 51.378906 L 276.144531 50.5625 L 275.570313 49.632813 L 275.347656 48.617188 L 275.179688 47.222656 L 275.179688 47.214844 L 275.210938 46.355469 L 275.300781 45.773438 L 275.359375 45.339844 L 275.363281 45.019531 L 275.132813 44.699219 L 274.644531 44.378906 L 273.722656 44.058594 L 273.351563 43.648438 L 273.035156 43.359375 L 272.921875 43.039063 L 272.894531 42.398438 L 272.898438 41.761719 L 273.1875 40.980469 L 273.308594 40.371094 L 273.222656 39.792969 L 272.765625 39.035156 L 271.304688 37.203125 L 270.84375 36.824219 L 270.210938 36.53125 L 269.433594 36.382813 L 267.5625 36.257813 L 265.199219 36.015625 L 263.558594 35.804688 L 262.375 35.972656 L 261.828125 36.175781 L 261.191406 36.808594 L 260.695313 37.707031 L 260.433594 39.011719 L 260.191406 41.242188 L 260.074219 42.082031 L 259.695313 42.894531 L 259.375 43.53125 L 259.253906 44.425781 L 259.273438 46.804688 L 259.039063 48.023438 L 258.601563 49.179688 L 257.496094 51.265625 L 256.945313 52.191406 L 256.742188 52.652344 L 256.738281 52.972656 L 256.855469 53.234375 L 257.140625 53.320313 L 257.574219 53.351563 L 258.554688 53.269531 L 259.1875 53.300781 L 260.195313 53.914063 L 260.941406 54.238281 L 261.773438 54.761719 L 262.664063 55.609375 L 263.152344 56.046875 L 263.410156 56.105469 L 263.585938 56.105469 L 263.644531 55.960938 L 263.472656 55.496094 L 262.871094 54.449219 L 262.730469 54.011719 L 262.703125 53.492188 L 262.820313 52.535156 L 263.175781 51.113281 L 263.296875 49.8125 L 263.46875 49.320313 L 263.875 49.144531 L 264.394531 49.121094 L 264.996094 49.324219 L 265.742188 49.964844 L 266.148438 50.113281 L 266.921875 50.550781 L 267.269531 50.8125 L 267.496094 51.539063 L 267.664063 52.875 L 267.738281 54.964844 L 267.738281 55.601563 L 267.53125 56.265625 L 267.210938 56.816406 L 266.636719 57.132813 L 266.085938 57.160156 L 265.570313 57.042969 L 265.308594 57.070313 L 265.191406 57.273438 L 265.191406 57.53125 L 265.363281 57.765625 L 265.796875 57.96875 L 267.523438 58.441406 L 268.617188 58.679688 L 269.394531 58.59375 L 270.289063 58.542969 L 270.921875 58.660156 L 271.269531 58.574219 L 272.164063 58.058594 L 272.683594 57.886719 L 273.402344 57.859375 L 274.179688 57.921875 L 276.625 58.859375 L 277.375 59.152344 L 278.035156 59.707031 L 278.496094 60.085938 L 278.777344 60.957031 L 278.949219 61.625 L 279.175781 62.03125 L 279.753906 62.265625 L 280.585938 62.472656 L 280.960938 62.824219 L 281.101563 63.34375 L 281.101563 63.867188 L 281.070313 64.476563 L 281.066406 64.941406 L 281.296875 65.203125 L 281.640625 65.320313 L 282.042969 65.378906 L 283.742188 65.5625 L 284.148438 65.765625 L 284.574219 66.492188 L 284.804688 67.074219 L 285.289063 67.714844 L 285.546875 68.003906 L 285.632813 68.179688 L 285.632813 68.382813 L 285.027344 68.613281 L 284.132813 69.070313 L 283.640625 69.589844 L 283.492188 70.140625 L 283.054688 71.445313 L 282.242188 73.210938 L 281.363281 76.367188 L 280.828125 79.757813 L 280.625 80.683594 L 280.503906 81.175781 L 280.128906 81.640625 L 279.492188 82.21875 L 278.453125 82.878906 L 277.84375 83.28125 L 277.585938 83.601563 L 277.003906 84.730469 L 276.476563 86.46875 L 276.042969 87.246094 L 275.722656 87.535156 L 275.203125 87.738281 L 274.425781 87.878906 L 273.445313 87.933594 L 272.265625 87.695313 L 270.855469 87.371094 L 270.335938 87.367188 L 268.605469 87.824219 L 267.710938 87.9375 L 266.847656 87.933594 L 266.214844 87.753906 L 264.746094 87.226563 L 263.851563 87.105469 L 261.808594 86.867188 L 261.375 86.894531 L 260.480469 87.238281 L 259.5 87.871094 L 257.96875 88.558594 L 256.496094 88.929688 L 255.460938 89.070313 L 254.164063 89.09375 L 253.210938 89.003906 L 252.722656 88.855469 L 250.539063 87.195313 L 249.417969 86.320313 L 248.527344 85.910156 L 247.40625 85.554688 L 246.082031 85.375 L 244.582031 85.28125 L 244.066406 85.191406 L 243.667969 85 L 243.460938 84.902344 L 242.453125 84.34375 L 241.765625 84.109375 L 241.128906 84.109375 L 240.378906 84.25 L 239.6875 84.449219 L 239.253906 84.476563 L 238.707031 84.445313 L 238.078125 84.007813 L 237.558594 83.425781 L 236.839844 83.015625 L 236.09375 82.839844 L 235.371094 82.804688 L 234.765625 82.949219 L 234.363281 83.351563 L 234.042969 83.960938 L 232.964844 86.710938 L 231.394531 90.039063 L 229.65625 92.4375 L 229.074219 93.421875 L 227.585938 97.996094 L 227.054688 100.894531 L 225.855469 104.980469 L 224.796875 109.789063 L 224.144531 114.28125 L 223.90625 115.875 L 223.84375 116.890625 L 224.070313 117.992188 L 224.667969 119.792969 L 224.867188 120.519531 L 224.890625 121.097656 L 224.832031 121.390625 L 224.6875 121.53125 L 224.515625 121.53125 L 224.226563 121.386719 L 223.828125 121.066406 L 223.425781 120.746094 L 223.195313 120.628906 L 223.078125 120.628906 L 222.933594 120.683594 L 222.933594 121.03125 L 223.160156 121.585938 L 223.90625 122.429688 L 225.628906 124.410156 L 227.003906 125.632813 L 228.242188 126.21875 L 230.828125 127.765625 L 232.839844 129.3125 L 234.074219 130.359375 L 235.105469 131.4375 L 235.824219 132.078125 L 236.886719 132.78125 L 238.667969 133.6875 L 240.59375 134.679688 L 241.714844 135.410156 L 242.492188 136.226563 L 243.289063 137.796875 L 243.976563 138.8125 L 245.613281 140.328125 L 246.675781 141.058594 L 249.261719 142.867188 L 252.046875 144.792969 L 256.613281 148.554688 L 258.824219 150.390625 L 260.859375 152.460938 L 263.84375 156.039063 L 266.25 158.488281 L 266.710938 158.808594 L 267.230469 158.984375 L 267.890625 159.015625 L 269.273438 159.050781 L 269.9375 159.140625 L 270.625 159.636719 L 271.488281 160.539063 L 272.804688 161.9375 L 273.292969 162.78125 L 273.605469 164 L 273.570313 165.160156 L 273.277344 166.175781 L 273.101563 167.160156 L 272.839844 167.507813 L 272.347656 167.851563 L 271.570313 168.226563 L 271.164063 168.28125 L 270.359375 168.277344 L 269.410156 168.011719 L 268.171875 167.167969 L 267.222656 166.757813 L 266.589844 166.78125 L 264.859375 167.269531 L 264.082031 167.582031 L 263.214844 167.695313 L 261.3125 168.066406 L 259.234375 168.953125 L 258.019531 169.703125 L 257.296875 170.597656 L 256.6875 171.554688 L 256.222656 172.1875 L 255.878906 172.332031 L 255.503906 172.359375 L 255.070313 172.242188 L 254.695313 172.039063 L 254.324219 171.746094 L 253.894531 171.25 L 253.550781 170.351563 L 253.324219 169.710938 L 253.101563 168 L 252.847656 166.953125 L 252.644531 166.578125 L 251.816406 165.296875 L 249.808594 163.113281 L 249.207031 162.472656 L 248.085938 161.511719 L 245.730469 160.195313 L 243.085938 158.53125 L 238.742188 156.65625 L 236.929688 155.808594 L 235.144531 155.421875 L 233.417969 155.09375 L 230.914063 155.027344 L 228.925781 154.988281 L 226.824219 154.542969 L 225.960938 154.25 L 224.550781 153.347656 L 223.144531 152.355469 L 221.992188 151.855469 L 221.101563 151.734375 L 219.949219 151.875 L 218.910156 152.015625 L 217.960938 152.011719 L 216.949219 151.980469 L 216.402344 152.035156 L 215.855469 152.410156 L 214.175781 154.054688 L 212.121094 156.105469 L 210.296875 157.867188 L 208.964844 159.542969 L 208.210938 160.988281 L 207.570313 162.726563 L 207.507813 163.65625 L 207.503906 164.902344 L 208.074219 166.382813 L 208.644531 167.34375 L 209.304688 168.070313 L 209.417969 168.449219 L 209.417969 168.738281 L 209.242188 169.027344 L 207.277344 170.789063 L 206.695313 171.394531 L 205.566406 173.214844 L 204.78125 174.691406 L 204.316406 175.9375 L 204.136719 176.949219 L 204.164063 177.878906 L 204.472656 179.273438 L 204.757813 180.203125 L 204.757813 180.492188 L 204.667969 180.695313 L 204.410156 180.839844 L 203.917969 180.835938 L 203.429688 180.6875 L 202.65625 180.078125 L 202.398438 179.726563 L 201.996094 179.058594 L 201.65625 177.550781 L 201.457031 177.113281 L 200.683594 176.210938 L 199.507813 175.105469 L 198.273438 173.792969 L 196.8125 171.726563 L 195.78125 170.359375 L 195.148438 169.808594 L 194.144531 169.28125 L 193.222656 169.101563 L 192.445313 169.214844 L 191.144531 169.789063 L 188.921875 171.230469 L 187.820313 172.125 L 184.554688 174.867188 L 181.226563 177.953125 L 179.058594 180.0625 L 178.710938 180.46875 L 178.332031 180.84375 L 177.464844 181.59375 L 177.003906 182.113281 L 176.042969 183.878906 L 175.054688 186.136719 L 174.332031 187.117188 L 173.550781 187.667969 L 172.710938 188.359375 L 170.71875 189.566406 L 167.574219 191.003906 L 163.472656 193.25 L 161.941406 194.199219 L 160.785156 194.863281 L 160.238281 195.0625 L 158.96875 195.375 L 156.34375 196.292969 L 153.253906 197.496094 L 151.929688 197.667969 L 151.464844 197.839844 L 150.136719 198.644531 L 146.699219 201.242188 L 145.308594 202.421875 L 144.675781 202.828125 L 144.414063 203.117188 L 144.382813 203.578125 L 144.40625 204.59375 L 144.519531 205.089844 L 144.976563 206.046875 L 145.148438 206.511719 L 145.175781 206.800781 L 145.144531 207.265625 L 144.769531 207.726563 L 142.488281 209.199219 L 141.851563 209.746094 L 140.894531 211.222656 L 140.570313 212.378906 L 140.332031 214.292969 L 140.203125 217.484375 L 140.3125 219.773438 L 140.5625 221.109375 L 141.394531 222.738281 L 141.964844 223.433594 L 143.976563 225.386719 L 144.261719 225.824219 L 144.632813 226.492188 L 145.207031 226.929688 L 145.609375 226.988281 L 146.5625 227.222656 L 147.164063 227.632813 L 147.652344 228.128906 L 148.28125 229.234375 L 149.679688 232.660156 L 151.332031 237.277344 L 152.613281 240.417969 L 154.246094 243.121094 L 154.816406 244.484375 L 156.390625 246.378906 L 158.113281 248.242188 L 158.972656 249.40625 L 159.714844 250.742188 L 160.34375 251.703125 L 161.40625 252.894531 L 163.5 254.875 L 164.476563 255.835938 L 164.90625 256.5625 L 165.988281 259.148438 L 166.304688 260.050781 L 167.105469 261.386719 L 168.132813 263.855469 L 169.042969 266.585938 L 170.296875 269.871094 L 171.4375 272.746094 L 172.121094 274.488281 L 173.261719 276.957031 L 173.71875 277.832031 L 173.859375 278.644531 L 173.886719 279.484375 L 173.851563 280.210938 L 173.589844 280.789063 L 172.636719 281.335938 L 171.367188 281.824219 L 169.753906 282.222656 L 167.820313 282.621094 L 166.265625 282.554688 L 164.480469 282.257813 L 162.785156 281.699219 L 162.207031 281.523438 L 161.519531 281.402344 L 160.652344 281.371094 L 160.019531 281.253906 L 158.957031 280.609375 L 158.296875 280.433594 L 156.480469 280.195313 L 155.273438 279.957031 L 154.925781 279.808594 L 152.972656 278.378906 L 151.511719 277.039063 L 151.136719 276.863281 L 150.101563 276.25 L 147.226563 274.441406 L 146.425781 273.769531 L 145.90625 273.421875 L 144.902344 273.039063 L 144.324219 272.921875 L 140.953125 272.761719 L 139.832031 272.699219 L 136.261719 271.871094 L 134.851563 271.605469 L 132.546875 271.652344 L 131.421875 271.503906 L 130.15625 271.09375 L 127.078125 270.035156 L 126.214844 269.828125 L 125.4375 269.824219 L 123.882813 269.847656 L 121.605469 269.867188 L 120.742188 269.980469 L 119.386719 270.46875 L 117.191406 271.414063 L 116.5 271.585938 L 115.980469 271.613281 L 115.722656 271.582031 L 115.375 271.378906 L 114.945313 270.96875 L 114.6875 270.621094 L 114.089844 269.050781 L 113.71875 268.472656 L 113.257813 268.003906 L 112.625 267.742188 L 111.964844 267.769531 L 111.300781 268.140625 L 109.792969 269.816406 L 109.101563 270.453125 L 108.148438 270.972656 L 107.050781 271.429688 L 105.839844 271.570313 L 104.832031 271.59375 L 103.652344 271.472656 L 102.125 271.207031 L 100.769531 271.078125 L 97.976563 270.8125 L 96.507813 270.691406 L 96.078125 270.484375 L 95.847656 269.960938 L 95.765625 269.179688 L 95.855469 268.714844 L 96.027344 268.308594 L 96.433594 268.078125 L 97.789063 268.027344 L 99.832031 267.863281 L 100.496094 267.953125 L 101.847656 268.191406 L 102.683594 268.394531 L 103.261719 268.398438 L 103.78125 268.199219 L 104.011719 267.9375 L 104.589844 267.359375 L 105.863281 266.292969 L 106.960938 265.253906 L 107.335938 264.761719 L 107.453125 264.328125 L 107.457031 263.71875 L 107.144531 262.992188 L 106.964844 262.734375 L 106.425781 261.945313 L 105.738281 261.246094 L 105.105469 260.808594 L 103.46875 259.988281 L 100.5625 258.613281 L 97.949219 256.949219 L 97.03125 256.132813 L 97.027344 256.132813 L 92.609375 251.824219 L 90.203125 249.085938 L 89.628906 248.621094 L 88.851563 248.242188 L 88.304688 247.832031 L 87.585938 247.105469 L 85.324219 243.816406 L 82.804688 239.980469 L 81.316406 237.738281 L 80.113281 236.488281 L 79.308594 235.613281 L 78.847656 235.207031 L 77.585938 234.503906 L 76.40625 233.804688 L 75.976563 233.25 L 75.375 232.582031 L 75.117188 232.058594 L 75.03125 231.566406 L 74.949219 230.898438 L 74.980469 229.914063 L 75.160156 228.722656 L 75.191406 227.796875 L 75.191406 227.417969 L 75.078125 227.1875 L 74.589844 226.546875 L 73.472656 225.207031 L 73.074219 224.597656 L 72.816406 223.609375 L 71.847656 221.574219 L 70.984375 220.414063 L 69.839844 218.898438 L 69.351563 218.460938 L 69.007813 217.96875 L 68.636719 217.039063 L 68.296875 215.964844 L 68.128906 214.628906 L 67.566406 211.582031 L 66.652344 208.882813 L 65.59375 207.164063 L 64.90625 206.234375 L 64.449219 205.796875 L 64.21875 205.710938 L 63.957031 205.707031 L 63.324219 206.023438 L 62.917969 206.167969 L 62.371094 206.109375 L 61.824219 205.757813 L 61.503906 205.351563 L 61.339844 204.945313 L 61.253906 204.390625 L 61.257813 203.839844 L 61.257813 203.289063 L 61.550781 202.21875 L 62.394531 200.191406 L 62.542969 199.121094 L 62.753906 197.613281 L 63.421875 195.441406 L 63.542969 194.628906 L 63.457031 194.078125 L 63.117188 193.03125 L 62.859375 192.304688 L 62.804688 191.492188 L 62.808594 190.769531 L 62.984375 190.304688 L 63.273438 190.042969 L 63.589844 189.988281 L 63.992188 190.136719 L 64.882813 190.894531 L 65.6875 191.242188 L 66.292969 191.332031 L 66.871094 191.21875 L 67.273438 191.046875 L 68.285156 190.007813 L 70.859375 187.554688 L 71.5 186.078125 L 72.257813 184.339844 L 72.605469 183.675781 L 73.269531 182.921875 L 74.054688 182.085938 L 74.664063 181.554688 L 75.410156 180.902344 L 76.28125 179.714844 L 77.472656 177.515625 L 77.851563 176.476563 L 78.144531 175.140625 L 78.4375 173.867188 L 78.441406 173.054688 L 78.441406 172.53125 L 78.214844 171.777344 L 77.617188 170.414063 L 77.53125 169.6875 L 77.59375 169.078125 L 77.941406 168.644531 L 78.488281 168.300781 L 79.007813 168.15625 L 79.871094 168.160156 L 80.910156 168.222656 L 81.65625 168.457031 L 82.347656 168.691406 L 83.527344 169.394531 L 85.195313 170.386719 L 86.457031 171.203125 L 88.300781 172.023438 L 89.363281 172.289063 L 89.96875 172.320313 L 90.488281 172.0625 L 90.808594 171.683594 L 91.125 171.164063 L 91.15625 170.699219 L 91.367188 169.136719 L 91.714844 167.949219 L 92.210938 166.527344 L 92.648438 165.253906 L 92.824219 164.820313 L 93.632813 163.984375 L 94.878906 162.625 L 95.34375 161.699219 L 95.511719 161.265625 L 95.546875 161.175781 L 95.8125 160.078125 L 96.164063 158.542969 L 97.945313 152.34375 L 98.359375 150.402344 L 98.828125 148.605469 L 98.976563 147.621094 L 99.011719 146.023438 L 99.019531 144.167969 L 99.082031 143.007813 L 99.488281 141.820313 L 100.011719 140.664063 L 100.390625 139.96875 L 100.882813 139.59375 L 101.3125 139.304688 L 101.574219 139.046875 L 101.921875 138.582031 L 102.269531 137.859375 L 102.558594 137.65625 L 102.761719 137.660156 L 103.019531 137.71875 L 103.277344 138.355469 L 103.875 140.390625 L 104.304688 141.117188 L 104.5625 141.347656 L 105.628906 141.585938 L 106.75 142.054688 L 108.015625 142.8125 L 109.078125 143.425781 L 109.683594 143.574219 L 110.257813 143.433594 L 111.210938 142.683594 L 111.589844 142.421875 L 112.367188 142.28125 L 113.003906 142.082031 L 113.492188 141.734375 L 113.753906 141.300781 L 114.539063 139.304688 L 114.886719 138.839844 L 115.292969 138.609375 L 116.328125 138.644531 L 117.222656 138.792969 L 118.429688 139.203125 L 120.214844 139.90625 L 121.652344 140.464844 L 122.375 140.496094 L 122.949219 140.324219 L 123.789063 139.71875 L 124.195313 139.113281 L 124.457031 138.621094 L 124.601563 138.070313 L 124.605469 136.996094 L 124.527344 135.054688 L 124.449219 133.875 L 124.417969 133.429688 L 124.480469 132.328125 L 124.75 130.328125 L 124.753906 129.71875 L 124.609375 129.3125 L 124.039063 128.324219 L 123.726563 126.871094 L 123.097656 125.359375 L 122.496094 124.488281 L 121.179688 122.511719 L 120.953125 121.988281 L 120.410156 120.652344 L 120.269531 119.578125 L 120.273438 118.589844 L 120.277344 117.78125 L 120.511719 116.996094 L 121.121094 116.160156 L 122.421875 114.832031 L 122.714844 114.222656 L 122.917969 113.585938 L 123.179688 112.542969 L 123.964844 111.242188 L 124.632813 109.734375 L 125.039063 109.070313 L 125.386719 108.78125 L 127.148438 107.570313 L 128.824219 106.359375 L 129.519531 105.636719 L 130.101563 104.132813 L 130.453125 102.972656 L 130.542969 102.046875 L 130.433594 101.320313 L 130.0625 100.332031 L 129.890625 99.753906 L 130.007813 99.230469 L 130.238281 99 L 131.335938 98.570313 L 132.027344 98.339844 L 132.953125 98.34375 L 133.640625 98.550781 L 134.851563 99.046875 L 136.117188 99.34375 L 136.980469 99.375 L 138.105469 99.0625 L 139.320313 98.402344 L 140.300781 97.796875 L 140.878906 97.625 L 141.445313 97.765625 L 142.085938 98.035156 L 142.835938 98.648438 L 143.75 99.695313 L 144.8125 101.324219 L 145.414063 101.9375 L 145.84375 102.082031 L 146.191406 102.054688 L 146.828125 101.679688 L 147.464844 101.160156 L 148.359375 100.148438 L 148.5625 99.773438 L 148.859375 98.035156 L 149.152344 96.730469 L 149.558594 95.921875 L 150.140625 94.996094 L 150.71875 94.417969 L 151.125 94.042969 L 152.046875 93.699219 L 155.046875 93.074219 L 157.179688 92.53125 L 158.710938 91.667969 L 160.214844 90.398438 L 161.34375 89.445313 L 162.355469 89.132813 L 163.074219 88.988281 L 164.140625 88.992188 L 165.4375 89 L 166.246094 88.828125 L 167.3125 88.253906 L 168.007813 87.707031 L 168.585938 86.984375 L 168.878906 86.230469 L 168.964844 85.75 L 169.027344 85.390625 L 169.410156 82.898438 L 169.613281 82.523438 L 170.28125 81.945313 L 170.65625 81.308594 L 170.890625 80.351563 L 171.53125 79.339844 L 172.050781 78.878906 L 172.773438 78.589844 L 173.492188 78.507813 L 174.242188 78.566406 L 176.140625 79.039063 L 179.421875 80.476563 L 179.683594 80.585938 L 181.664063 81.441406 L 182.46875 81.9375 L 182.898438 82.375 L 183.214844 83.304688 L 183.496094 84.351563 L 183.898438 84.988281 L 184.441406 85.484375 L 185.074219 85.71875 L 186.574219 86.046875 L 187.378906 86.222656 L 187.867188 86.167969 L 188.101563 86.050781 L 188.214844 85.792969 L 188.21875 85.472656 L 188.222656 84.253906 L 188.484375 83.792969 L 188.890625 83.011719 L 189.011719 82.199219 L 189.214844 81.824219 L 189.617188 81.707031 L 190.539063 81.566406 L 191.722656 81.3125 L 192.648438 80.707031 L 193.546875 79.636719 L 194.878906 77.875 L 195.601563 76.890625 L 195.953125 76.121094 L 196.679688 74.519531 L 197.203125 72.894531 L 197.351563 72.027344 L 197.414063 70.953125 L 197.363281 69.824219 L 197.222656 69.15625 L 196.847656 68.371094 L 196.535156 67.992188 L 195.730469 67.554688 L 194.867188 67.144531 L 194.148438 66.589844 L 193.257813 65.453125 L 192.515625 64.089844 L 192.175781 63.101563 L 192.007813 62.171875 L 192.070313 60.867188 L 192.683594 58.925781 L 193.320313 57.652344 L 193.785156 57.074219 L 194.535156 56.558594 L 195.058594 56.296875 L 195.804688 56.214844 L 197.246094 56.222656 L 197.910156 56.164063 L 198.890625 55.707031 L 199.527344 55.417969 L 200.105469 55.363281 L 200.765625 55.425781 L 202.148438 55.777344 L 203.070313 55.78125 L 203.53125 55.667969 L 203.792969 55.351563 L 204.515625 54.394531 L 204.667969 54.257813 L 205.820313 53.214844 L 207.03125 52.609375 L 207.578125 52.554688 L 208.011719 52.554688 L 208.617188 52.933594 L 209.21875 53.722656 L 210.105469 54.449219 L 210.769531 54.625 L 211.632813 54.628906 L 216.539063 53.433594 L 217.863281 53.148438 L 218.585938 52.832031 L 218.816406 52.574219 L 218.90625 52.167969 L 218.851563 51.617188 L 218.566406 51.09375 L 217.878906 50.25 L 217.707031 49.929688 L 217.679688 49.699219 L 217.679688 49.40625 L 217.707031 49.175781 L 217.910156 48.972656 L 218.488281 48.800781 L 220.160156 48.636719 L 220.910156 48.40625 L 221.949219 47.859375 L 222.480469 47.398438 L 223.109375 46.851563 L 223.339844 46.503906 L 223.660156 45.867188 L 223.921875 45.433594 L 224.355469 44.96875 L 224.730469 44.566406 L 224.992188 44.132813 L 225.050781 43.582031 L 225.320313 42.105469 L 225.695313 41.089844 L 226.046875 40.65625 L 226.59375 40.371094 L 227.460938 40.054688 L 228.84375 39.886719 L 230.863281 39.605469 L 231.902344 39.289063 L 232.738281 38.945313 L 233.375 38.515625 L 234.097656 37.996094 L 234.472656 37.851563 L 235.367188 37.710938 L 237.269531 37.804688 L 237.917969 37.722656 L 238.765625 37.609375 L 239.691406 37.441406 L 240.4375 37.441406 L 240.929688 37.53125 L 241.246094 37.765625 L 241.644531 38.492188 L 241.988281 39.042969 L 242.417969 39.367188 L 243.109375 39.601563 L 243.65625 39.515625 L 244.695313 39.058594 L 245.824219 38.480469 L 246.835938 37.820313 L 247.820313 36.78125 L 248.628906 35.738281 L 249.152344 35.191406 L 249.699219 34.960938 L 250.535156 34.90625 L 251.949219 35.027344 L 253.417969 35.09375 L 254.945313 34.78125 L 256.476563 33.976563 L 257.925781 32.445313 L 258.246094 31.578125 L 259.617188 27.203125 L 260.664063 24.976563 L 262.609375 22.113281 L 263.304688 21.273438 L 264.113281 20.609375 L 264.777344 20.179688 L 265.5 20.007813 L 265.847656 20.011719 L 266.191406 20.183594 L 266.878906 21.144531 L 267.539063 21.785156 L 268.226563 22.253906 L 268.859375 22.429688 L 269.554688 22.433594 L 270.246094 22.203125 L 271.34375 21.425781 L 271.734375 21.136719 L 272.039063 20.90625 L 272.527344 20.824219 L 273.335938 20.882813 L 274.3125 20.976563 L 275.582031 20.953125 L 276.015625 20.925781 L 276.449219 20.695313 L 276.566406 20.40625 L 276.683594 19.941406 L 276.886719 19.652344 L 277.171875 19.597656 L 277.546875 19.683594 L 278.839844 20.328125 L 279.214844 20.386719 L 280.082031 20.277344 L 280.570313 20.25 L 281.058594 20.367188 L 281.953125 20.835938 L 282.382813 20.953125 L 283.074219 21.070313 L 283.5625 21.25 L 283.820313 21.511719 L 283.847656 21.742188 L 283.761719 22.0625 L 283.441406 22.667969 L 283.324219 22.988281 L 283.351563 23.160156 L 283.46875 23.480469 L 284.039063 24.296875 L 284.242188 24.644531 L 284.269531 24.875 L 284.152344 25.222656 L 283.511719 26.121094 L 283.367188 26.699219 L 283.308594 27.164063 L 283.476563 27.597656 L 283.9375 27.917969 L 284.601563 28.039063 L 285.695313 28.042969 L 286.761719 28.164063 L 287.914063 28.429688 L 289.496094 29.046875 L 290.703125 29.691406 L 292.082031 30.710938 L 292.796875 31.554688 L 292.941406 32.019531 L 292.996094 32.6875 L 293.078125 33.066406 L 294.140625 34.171875 L 295.460938 35.394531 L 295.832031 36.152344 Z M 296 37.226563 "/>
<path style="fill:none;stroke-width:0.75;stroke-linecap:round;stroke-linejoin:round;stroke:rgb(100%,0%,0%);stroke-opacity:1;stroke-miterlimit:10;" d="M 381.382813 223.84375 L 381.089844 225.351563 L 379.875 226.792969 L 378.167969 227.832031 L 376.722656 228.957031 L 375.625 229.792969 L 373.601563 231.523438 L 371.894531 232.558594 L 371 232.960938 L 369.734375 233.101563 L 368.839844 232.863281 L 367.175781 231.40625 L 366.457031 230.792969 L 365.191406 230.410156 L 364.011719 230.433594 L 362.742188 230.691406 L 361.761719 231.148438 L 361.039063 231.726563 L 360.023438 233.171875 L 359.441406 234.707031 L 359.207031 235.285156 L 358.6875 235.863281 L 358.109375 236.296875 L 356.664063 236.925781 L 355.828125 237.242188 L 354.875 237.90625 L 353.515625 238.972656 L 352.390625 239.285156 L 351.09375 239.425781 L 350.199219 239.363281 L 349.078125 239.214844 L 348.359375 238.71875 L 346.320313 237.199219 L 343.878906 235.332031 L 343.019531 234.867188 L 341.75 234.628906 L 340.28125 234.503906 L 338.699219 234.554688 L 337.890625 234.496094 L 336.136719 233.789063 L 335.042969 233.261719 L 333.09375 231.660156 L 331.945313 230.582031 L 328.648438 227.027344 L 326.726563 225.046875 L 326.304688 224.757813 L 325.835938 224.4375 L 324.453125 223.9375 L 322.84375 223.640625 L 321.632813 223.574219 L 320.105469 223.859375 L 318.488281 224.519531 L 317.765625 225.066406 L 316.085938 226.886719 L 315.300781 228.304688 L 314.835938 229.316406 L 313.984375 233.546875 L 313.566406 236.242188 L 313.316406 240.9375 L 313.273438 244.535156 L 312.886719 246.707031 L 312.683594 247.289063 L 312.277344 247.921875 L 311.609375 248.847656 L 310.804688 249.191406 L 310.371094 249.21875 L 309.277344 248.984375 L 307.609375 248.25 L 304.445313 247.046875 L 302.261719 245.847656 L 299.789063 244.445313 L 297.238281 241.738281 L 295.949219 239.558594 L 295.238281 238.132813 L 293.410156 233.804688 L 291.5625 228.488281 L 290.273438 226.222656 L 289.273438 224.503906 L 287.066406 221.914063 L 283.882813 218.886719 L 281.414063 216.320313 L 279.75 215.097656 L 278.117188 212.914063 L 277.203125 210.792969 L 276.234375 208.179688 L 275.097656 204.664063 L 274.382813 203.851563 L 273.664063 203.410156 L 273.496094 202.597656 L 273.527344 201.84375 L 273.757813 201.351563 L 274.25 201.035156 L 275.320313 200.402344 L 275.492188 199.910156 L 275.703125 198.375 L 276.542969 196.957031 L 278.65625 194.90625 L 279.234375 194.589844 L 280.996094 193.933594 L 282.0625 193.734375 L 283.414063 193.652344 L 284.539063 193.65625 L 286.785156 194.015625 L 292.371094 194.621094 L 294.933594 194.949219 L 297.757813 194.964844 L 299.027344 195.027344 L 299.601563 195.289063 L 300.320313 195.816406 L 300.835938 196.484375 L 301.378906 197.355469 L 302.265625 198.375 L 302.753906 198.753906 L 305.027344 199.953125 L 306.089844 200.65625 L 307.121094 201.617188 L 307.582031 202.113281 L 309.097656 204.496094 L 310.726563 207.402344 L 313.671875 212.40625 L 315.214844 215.078125 L 317.535156 218.773438 L 317.90625 219.179688 L 318.480469 219.414063 L 318.972656 219.476563 L 319.578125 219.476563 L 320.296875 219.25 L 320.757813 219.019531 L 322.148438 217.515625 L 325.828125 212.921875 L 328.234375 209.453125 L 328.554688 208.992188 L 329.417969 208.671875 L 329.882813 208.503906 L 330.253906 208.535156 L 331.808594 209.035156 L 332.351563 209.507813 L 332.8125 209.910156 L 335.164063 212.789063 L 336.316406 214.265625 L 338 216.429688 L 340.753906 219.457031 L 341.988281 219.898438 L 342.695313 219.855469 L 343.402344 219.816406 L 344.441406 218.894531 L 345.429688 217.070313 L 346.363281 214.609375 L 347.613281 212.351563 L 349.734375 207.925781 L 350.09375 204.910156 L 349.957031 203.546875 L 349.765625 201.109375 L 349.800781 199.632813 L 350.265625 199.054688 L 351.414063 199.144531 L 352.507813 199.527344 L 356.273438 201.863281 L 359.039063 202.167969 L 360.386719 202.375 L 361.542969 202.554688 L 363.925781 204.683594 L 365.070313 206.285156 L 365.871094 207.476563 L 366.433594 210.378906 L 366.515625 211.539063 L 366.355469 214.84375 L 366.347656 216.988281 L 366.515625 217.628906 L 367.230469 219.285156 L 367.429688 219.519531 L 368.894531 220.453125 L 369.183594 220.453125 L 370.539063 220.226563 L 371.058594 220 L 372.445313 218.84375 L 372.90625 218.730469 L 375.300781 218.683594 L 379.242188 220.035156 L 381.222656 221.640625 L 381.371094 223.675781 Z M 381.382813 223.84375 "/>
<path style="fill:none;stroke-width:0.75;stroke-linecap:round;stroke-linejoin:round;stroke:rgb(100%,0%,0%);stroke-opacity:1;stroke-miterlimit:10;" d="M 94.585938 269.347656 L 94.582031 270.042969 L 94.464844 270.683594 L 94.203125 271.230469 L 93.015625 272.617188 L 92.199219 273.210938 L 90.992188 274.089844 L 89.3125 276.082031 L 88.328125 277.703125 L 87.921875 278.109375 L 86.910156 278.625 L 85.988281 278.796875 L 83.625 279.105469 L 81.230469 279.703125 L 78.277344 279.882813 L 77.167969 279.949219 L 74.628906 280.460938 L 71.894531 280.507813 L 70.308594 280.585938 L 69.066406 281.015625 L 67.769531 281.941406 L 66.726563 282.980469 L 66.292969 283.730469 L 64.929688 285.785156 L 64.347656 286.347656 L 62.992188 287.664063 L 62.410156 288.964844 L 61.105469 291.222656 L 60.378906 292.785156 L 59.996094 294.496094 L 59.992188 295.566406 L 60.042969 296.699219 L 60.242188 297.65625 L 61.011719 300.242188 L 61.121094 301.023438 L 61.121094 301.371094 L 60.859375 301.75 L 60.511719 301.863281 L 59.589844 301.859375 L 58.988281 301.886719 L 58.179688 302 L 57.832031 301.996094 L 57.460938 301.734375 L 57.347656 301.386719 L 57.347656 300.894531 L 57.4375 300.199219 L 57.761719 298.402344 L 57.761719 297.964844 L 57.59375 297.5 L 57.105469 296.917969 L 56.621094 295.816406 L 56.394531 294.886719 L 56.050781 294.304688 L 55.273438 293.722656 L 54.441406 293.253906 L 53.921875 293.195313 L 52.886719 293.042969 L 51.417969 292.921875 L 50.839844 292.773438 L 50.4375 292.453125 L 49.519531 291.464844 L 49.117188 291.375 L 48.601563 291.460938 L 47.90625 291.515625 L 47.535156 291.253906 L 47.449219 290.703125 L 47.28125 290.035156 L 46.964844 289.742188 L 46.273438 289.1875 L 46.128906 288.992188 L 46.132813 288.839844 L 46.304688 288.636719 L 47.230469 288.121094 L 47.605469 287.570313 L 48.128906 286.472656 L 48.367188 284.875 L 48.429688 283.367188 L 48.234375 281.800781 L 47.664063 280.089844 L 47.070313 277.851563 L 46.929688 276.460938 L 46.960938 275.996094 L 47.195313 275.039063 L 47.285156 274.375 L 47.230469 273.765625 L 47.035156 272.660156 L 46.949219 272.167969 L 47.070313 271.039063 L 47.363281 268.949219 L 47.953125 266.023438 L 48.507813 264.605469 L 48.625 263.96875 L 48.507813 263.792969 L 48.078125 263.703125 L 47.210938 263.960938 L 46.085938 264.390625 L 44.011719 264.472656 L 43.320313 264.816406 L 42.566406 265.769531 L 42.273438 266.726563 L 41.601563 268.867188 L 41.167969 270 L 39.746094 271.90625 L 38.734375 272.976563 L 38.273438 273.378906 L 37.636719 273.523438 L 37.175781 273.460938 L 36.167969 273.195313 L 35.941406 273.050781 L 35.625 272.179688 L 35.199219 271.191406 L 34.945313 270.03125 L 34.339844 269.332031 L 33.304688 268.863281 L 31.78125 268.480469 L 29.335938 267.515625 L 28.214844 267.046875 L 27.722656 266.984375 L 26.65625 267.066406 L 25.503906 267.324219 L 24.496094 267.550781 L 23.917969 267.550781 L 23.257813 267.34375 L 22.3125 266.238281 L 21.824219 265.453125 L 21.652344 264.699219 L 21.457031 263.449219 L 21.117188 262.550781 L 19.859375 259.324219 L 19.121094 257.03125 L 18.8125 255.261719 L 18.828125 251.257813 L 18.804688 249.808594 L 18.578125 248.792969 L 18.589844 245.429688 L 18.375 242.207031 L 18.347656 241.425781 L 18.640625 239.917969 L 18.792969 238.148438 L 18.855469 237.25 L 19.175781 236.238281 L 19.582031 235.804688 L 19.984375 235.285156 L 20.359375 235.140625 L 20.996094 234.996094 L 21.714844 235.089844 L 23.242188 235.328125 L 25.632813 235.511719 L 26.121094 235.597656 L 26.523438 235.773438 L 27.242188 236.445313 L 27.960938 236.96875 L 28.765625 237.261719 L 30.320313 237.558594 L 30.695313 237.648438 L 31.441406 237.824219 L 32.304688 238.523438 L 32.90625 239.367188 L 34.078125 241.925781 L 34.992188 243.871094 L 35.164063 243.988281 L 35.421875 243.988281 L 35.710938 243.902344 L 35.980469 243.488281 L 36.582031 242.023438 L 37.890625 239.386719 L 39.195313 237.191406 L 39.808594 235.683594 L 39.925781 234.554688 L 39.917969 233.261719 L 39.722656 232.445313 L 39.335938 231.589844 L 39.121094 230.839844 L 39.011719 230.160156 L 39.015625 229.609375 L 39.125 229.125 L 39.324219 228.664063 L 39.785156 228.25 L 40.289063 227.988281 L 40.988281 227.816406 L 41.773438 227.773438 L 42.953125 227.847656 L 44.042969 228.046875 L 45.175781 228.359375 L 45.980469 228.824219 L 46.589844 229.464844 L 47.085938 230.433594 L 47.929688 232.371094 L 48.710938 234.109375 L 49.3125 235.847656 L 49.441406 236.636719 L 49.460938 237.144531 L 49.414063 237.847656 L 49.0625 238.878906 L 49.015625 239.46875 L 49.074219 240.988281 L 49.546875 242.613281 L 50.261719 244.195313 L 51.34375 246.492188 L 51.574219 246.78125 L 52.4375 247.367188 L 53.359375 247.484375 L 54.078125 247.574219 L 54.597656 247.75 L 55.484375 248.597656 L 55.6875 248.945313 L 56.710938 252.488281 L 57.308594 254.144531 L 57.59375 254.8125 L 59.285156 256.964844 L 59.839844 257.605469 L 60.007813 257.796875 L 60.34375 258.1875 L 61.292969 258.710938 L 62.300781 258.890625 L 63.253906 258.835938 L 64.117188 258.550781 L 64.925781 257.855469 L 65.21875 257.394531 L 65.796875 256.179688 L 66.234375 255.570313 L 66.636719 255.28125 L 67.070313 255.140625 L 67.933594 255.113281 L 68.769531 255.117188 L 70.351563 255.761719 L 71.472656 256.375 L 72.421875 256.929688 L 77.109375 258.953125 L 77.65625 259.300781 L 78.058594 259.710938 L 78.972656 260.988281 L 80.265625 261.894531 L 87.113281 264.9375 L 93.667969 267.980469 L 94.15625 268.390625 L 94.414063 268.855469 Z M 94.585938 269.347656 "/>
<path style="fill:none;stroke-width:0.75;stroke-linecap:round;stroke-linejoin:round;stroke:rgb(100%,0%,0%);stroke-opacity:1;stroke-miterlimit:10;" d="M 449.652344 174.875 L 449.546875 177.492188 L 449.167969 179.222656 L 448.933594 179.78125 L 447.902344 181.414063 L 447.667969 181.601563 L 447.152344 182.90625 L 446.679688 184.683594 L 445.597656 187.8125 L 445.269531 188.371094 L 444.050781 190.425781 L 443.070313 191.308594 L 442.28125 191.492188 L 441.769531 191.164063 L 441.585938 190.648438 L 441.589844 189.710938 L 441.59375 189.148438 L 441.753906 184.613281 L 441.664063 183.769531 L 441.25 183.066406 L 440.417969 182.269531 L 438.425781 180.855469 L 436.292969 179.441406 L 434.808594 178.78125 L 434.207031 178.636719 L 433.136719 178.773438 L 432.390625 178.910156 L 430.34375 179.882813 L 428.902344 180.296875 L 428.527344 180.34375 L 428.019531 180.011719 L 427.925781 179.730469 L 427.976563 179.21875 L 428.257813 178.191406 L 429.246094 175.902344 L 430.75 172.542969 L 432.621094 169.277344 L 433.511719 167.644531 L 434.453125 165.542969 L 435.152344 164.234375 L 436.273438 163.679688 L 436.785156 163.542969 L 437.578125 162.984375 L 438.042969 162.238281 L 438.84375 160.699219 L 440.105469 158.503906 L 441.601563 156.6875 L 442.695313 156.238281 L 444.160156 156.417969 L 444.667969 156.984375 L 444.753906 158.808594 L 444.785156 162.035156 L 445.011719 163.019531 L 445.753906 163.722656 L 446.726563 164.148438 L 447.886719 164.902344 L 449.132813 166.828125 L 449.589844 168.136719 L 449.589844 168.558594 L 449.515625 170.761719 L 449.480469 171.785156 Z M 449.652344 174.875 "/>
<path style="fill:none;stroke-width:0.75;stroke-linecap:round;stroke-linejoin:round;stroke:rgb(100%,0%,0%);stroke-opacity:1;stroke-miterlimit:10;" d="M 57.230469 303.980469 L 57.226563 304.273438 L 56.957031 305.457031 L 56.898438 305.960938 L 56.660156 306.285156 L 56.101563 306.992188 L 55.714844 307.257813 L 55.363281 307.402344 L 54.777344 307.28125 L 54.453125 307.074219 L 53.75 306.714844 L 53.164063 306.242188 L 53.136719 306.003906 L 53.136719 305.765625 L 53.253906 305.5625 L 53.757813 305.121094 L 54.023438 304.734375 L 54.289063 304.324219 L 54.792969 303.527344 L 54.9375 303.261719 L 55.175781 303.082031 L 55.441406 303.023438 L 56.203125 303.058594 L 56.613281 303.207031 L 56.878906 303.476563 L 57.171875 303.742188 Z M 57.230469 303.980469 "/>
<path style="fill:none;stroke-width:0.75;stroke-linecap:round;stroke-linejoin:round;stroke:rgb(0%,0%,100%);stroke-opacity:1;stroke-miterlimit:10;" d="M 67.332031 179.15625 L 66.480469 179.972656 L 65.84375 179.90625 L 64.140625 180.148438 L 63.925781 180.726563 L 63.289063 180.945313 L 61.585938 180.445313 L 60.308594 180.878906 L 60.09375 180.363281 L 59.457031 179.671875 L 58.605469 179.953125 L 57.964844 179.671875 L 57.539063 178.8125 L 57.539063 177.390625 L 57.113281 175.859375 L 56.261719 175.582031 L 54.773438 173.277344 L 55.410156 172.84375 L 55.835938 171.164063 L 56.476563 170.691406 L 59.242188 167.804688 L 60.308594 167.503906 L 61.160156 166.964844 L 62.4375 166.75 L 63.714844 166.921875 L 64.140625 168.042969 L 64.140625 168.6875 L 64.566406 169.613281 L 65.203125 169.675781 L 66.269531 170.671875 L 66.054688 171.335938 L 65.628906 171.832031 L 66.269531 172.738281 L 67.761719 173.105469 L 67.546875 173.945313 L 67.761719 174.394531 L 67.761719 176.226563 L 67.972656 177.132813 Z M 67.332031 179.15625 "/>
<g clip-path="url(#clip2)" clip-rule="nonzero">
<path style="fill:none;stroke-width:0.75;stroke-linecap:round;stroke-linejoin:round;stroke:rgb(0%,0%,100%);stroke-opacity:1;stroke-miterlimit:10;" d="M 436.453125 -48.019531 L 519.675781 223.4375 L 222.300781 360.285156 L 39.230469 358.949219 L -45.695313 279.582031 L -42.925781 236.726563 L 20.285156 236.058594 L 20.285156 231.703125 L 20.921875 229.164063 L 22.414063 226.988281 L 26.03125 227.785156 L 29.863281 228.195313 L 33.484375 228.992188 L 34.335938 229.789063 L 37.316406 229.984375 L 37.316406 232.738281 L 38.167969 232.546875 L 38.167969 237.457031 L 41.148438 237.457031 L 41.148438 233.730469 L 41.785156 231.964844 L 42.210938 231.382813 L 42.640625 228.625 L 44.128906 227.441406 L 44.339844 226.859375 L 43.914063 224.898438 L 42.210938 222.917969 L 42.851563 220.960938 L 44.554688 220.765625 L 49.238281 221.5625 L 51.367188 222.746094 L 53.707031 225.117188 L 55.625 228.667969 L 55.199219 233.96875 L 56.261719 238.101563 L 59.457031 240.859375 L 60.308594 240.667969 L 62.011719 240.667969 L 62.222656 244.003906 L 64.351563 247.34375 L 63.925781 251.28125 L 70.738281 251.089844 L 71.164063 248.9375 L 70.953125 246.976563 L 76.273438 246.78125 L 78.828125 249.152344 L 83.515625 250.9375 L 87.773438 253.503906 L 87.558594 255.070313 L 95.222656 257.636719 L 95.648438 259.8125 L 100.972656 260.414063 L 102.886719 261.210938 L 102.675781 261.621094 L 103.527344 261.941406 L 104.804688 261.902344 L 105.015625 260.632813 L 107.996094 259.101563 L 113.320313 258.371094 L 112.253906 257.59375 L 111.617188 255.03125 L 105.867188 250.421875 L 100.335938 243.789063 L 97.566406 240.707031 L 92.03125 238.144531 L 90.539063 232.289063 L 87.132813 228.691406 L 85.429688 226.644531 L 80.957031 223.070313 L 79.257813 220.507813 L 79.46875 215.660156 L 78.828125 213.121094 L 77.765625 212.085938 L 77.339844 210.296875 L 75.421875 209.285156 L 73.71875 206.464844 L 73.507813 204.417969 L 74.144531 202.136719 L 74.144531 199.832031 L 70.953125 198.300781 L 68.183594 196.75 L 66.90625 193.953125 L 68.609375 190.632813 L 69.675781 185.53125 L 68.824219 181.457031 L 71.589844 181.976563 L 74.144531 181.203125 L 76.488281 178.402344 L 80.105469 175.621094 L 80.105469 172.046875 L 82.238281 170.261719 L 86.28125 168.75 L 85.855469 165.4375 L 87.347656 161.34375 L 90.539063 160.332031 L 93.945313 160.847656 L 95.222656 162.660156 L 99.054688 161.644531 L 102.035156 155.53125 L 105.441406 150.941406 L 106.933594 145.621094 L -2.070313 143.683594 L -2.710938 52.171875 L 125.859375 -27.429688 L 444.332031 -83.449219 Z M 436.453125 -48.019531 "/>
<path style="fill:none;stroke-width:0.75;stroke-linecap:square;stroke-linejoin:round;stroke:rgb(0%,0%,0%);stroke-opacity:1;stroke-miterlimit:10;" d="M 9.363281 313.398438 L 458.636719 313.398438 L 458.636719 13.597656 L 9.363281 13.597656 Z M 9.363281 313.398438 "/>
</g>
</g>
</svg>
